<svg width="36" height="36" viewBox="0 0 36 36" fill="none" xmlns="http://www.w3.org/2000/svg">
<path d="M35.5935 33.4526C35.8662 33.7426 36.0125 34.129 36.0003 34.527C35.9881 34.9249 35.8183 35.3016 35.5283 35.5743C35.2382 35.847 34.8518 35.9934 34.4539 35.9811C34.056 35.9689 33.6792 35.7991 33.4065 35.5091L25.182 26.7506C23.628 26.8001 16.4715 27.0131 18.714 23.6306C18.9017 23.4397 19.1378 23.3034 19.397 23.2363C19.6562 23.1692 19.9287 23.1738 20.1855 23.2496C21.8624 23.7697 23.6324 23.9181 25.3725 23.6846C25.6732 23.646 25.9787 23.6804 26.2633 23.7848C26.5479 23.8893 26.8031 24.0607 27.0075 24.2846L35.5935 33.4526ZM22.5 20.9816C23.4849 20.983 24.4604 20.79 25.3706 20.4137C26.2807 20.0373 27.1077 19.4851 27.804 18.7886L35.5605 11.0306C35.7 10.8913 35.8106 10.7259 35.8862 10.5439C35.9617 10.3619 36.0007 10.1667 36.0008 9.96963C36.001 9.77254 35.9623 9.57734 35.887 9.3952C35.8117 9.21306 35.7013 9.04753 35.562 8.90807C35.4227 8.7686 35.2574 8.65794 35.0753 8.58238C34.8933 8.50683 34.6982 8.46787 34.5011 8.46773C34.304 8.46759 34.1088 8.50628 33.9266 8.58157C33.7445 8.65687 33.579 8.7673 33.4395 8.90657L25.683 16.6646C25.0243 17.3175 24.1799 17.751 23.2653 17.9057C22.3508 18.0603 21.4108 17.9286 20.574 17.5286L31.0605 7.04207C31.2038 6.9037 31.318 6.73818 31.3967 6.55517C31.4753 6.37217 31.5166 6.17534 31.5184 5.97617C31.5201 5.777 31.4822 5.57948 31.4067 5.39514C31.3313 5.21079 31.2199 5.04331 31.0791 4.90247C30.9383 4.76164 30.7708 4.65026 30.5864 4.57483C30.4021 4.49941 30.2046 4.46146 30.0054 4.46319C29.8062 4.46492 29.6094 4.5063 29.4264 4.58492C29.2434 4.66353 29.0779 4.7778 28.9395 4.92107L18.45 15.4076C18.0499 14.5708 17.9182 13.6308 18.0729 12.7162C18.2275 11.8017 18.661 10.9573 19.314 10.2986L27.075 2.54207C27.3482 2.25916 27.4994 1.88026 27.496 1.48697C27.4926 1.09367 27.3348 0.717452 27.0567 0.43934C26.7786 0.161228 26.4024 0.00347433 26.0091 5.67039e-05C25.6158 -0.00336092 25.2369 0.147831 24.954 0.421068L17.196 8.17757C15.9761 9.40159 15.2153 11.0086 15.0419 12.728C14.8684 14.4474 15.2927 16.174 16.2435 17.6171L0.4395 33.4211C0.166263 33.704 0.0150713 34.0829 0.0184889 34.4762C0.0219066 34.8695 0.17966 35.2457 0.457772 35.5238C0.735884 35.8019 1.1121 35.9597 1.5054 35.9631C1.89869 35.9665 2.2776 35.8153 2.5605 35.5421L18.3645 19.7381C19.5913 20.549 21.0294 20.9815 22.5 20.9816ZM8.178 19.4291C9.4215 20.6006 10.569 19.0451 11.4045 18.2126C11.7501 17.8632 12.0046 17.4342 12.1456 16.9634C12.2865 16.4926 12.3097 15.9944 12.213 15.5126C11.2875 12.9296 13.5495 9.91457 11.6775 7.83707L4.9935 0.841068C4.5812 0.440483 4.06061 0.169419 3.496 0.061342C2.93139 -0.0467347 2.3475 0.0129089 1.8164 0.232909C1.28531 0.452908 0.830271 0.823631 0.507476 1.2993C0.184681 1.77498 0.00826135 2.33477 0 2.90957C0.3555 9.83057 2.9025 13.3616 8.178 19.4291Z" fill="#FF8D41"/>
</svg>
